<?xml version="1.0" encoding="UTF-8" standalone="no"?>
<!DOCTYPE svg PUBLIC "-//W3C//DTD SVG 1.1//EN" "http://www.w3.org/Graphics/SVG/1.1/DTD/svg11.dtd">
<svg width="100%" height="100%" viewBox="0 0 512 512" version="1.1" xmlns="http://www.w3.org/2000/svg" xmlns:xlink="http://www.w3.org/1999/xlink" xml:space="preserve" xmlns:serif="http://www.serif.com/" style="fill-rule:evenodd;clip-rule:evenodd;stroke-linejoin:round;stroke-miterlimit:1.41421;">
    <g transform="matrix(1,0,0,1,114.32,4.7276)">
        <circle cx="141.68" cy="68.38" r="46.39"/>
    </g>
    <g transform="matrix(1,0,0,1,103.32,44.3336)">
        <path d="M98.798,209.966L142.051,265.845L106.076,419.752C103.157,432.348 91.938,440.949 79.435,440.949C77.789,440.949 76.113,440.804 74.436,440.494C59.097,437.668 49.224,422.609 52.743,407.405L98.798,209.966ZM228.585,93.996L229.476,140.384C216.828,140.384 206.572,150.641 206.572,163.288L206.572,209.966L252.267,407.401C252.743,409.481 252.971,411.551 252.971,413.59C252.971,426.486 243.811,438.047 230.563,440.489C216.166,443.149 202.235,434.01 198.934,419.748L163.31,265.845C160.702,254.574 144.659,254.574 142.051,265.845L98.798,209.966L98.798,163.288C98.798,150.64 88.541,140.384 75.894,140.384L34.205,140.384C31.214,140.384 28.347,139.815 25.728,138.78C22.727,137.61 20.036,135.83 17.8,133.595C13.598,129.392 11,123.596 11,117.19C11,104.377 21.391,93.996 34.205,93.996L228.585,93.996ZM-151.829,440.494C-167.168,437.668 -134.327,440.949 -146.83,440.949C-148.476,440.949 -150.152,440.804 -151.829,440.494ZM228.585,93.996L271.166,93.996C277.573,93.996 283.369,96.594 287.571,100.786C291.762,104.987 294.36,110.783 294.36,117.19C294.36,127.012 288.264,135.406 279.642,138.78C277.023,139.815 274.157,140.384 271.165,140.384L245.127,140.384L229.476,140.384L228.585,93.996Z" style="fill-rule:nonzero;"/>
    </g>
</svg>
